<?xml version="1.0" encoding="utf-8"?>
<!-- Generator: Adobe Illustrator 23.0.2, SVG Export Plug-In . SVG Version: 6.00 Build 0)  -->
<svg version="1.1" id="Слой_1" xmlns:xodm="http://www.corel.com/coreldraw/odm/2003"
     xmlns="http://www.w3.org/2000/svg" xmlns:xlink="http://www.w3.org/1999/xlink" x="0px" y="0px" viewBox="0 0 1004.6 268.7"
     style="enable-background:new 0 0 1004.6 268.7;" xml:space="preserve">
<style type="text/css">
	.st0{fill:#F8D000;}
	.st1{fill-rule:evenodd;clip-rule:evenodd;fill:#F8D000;}
</style>
    <g id="Слой_x0020_1">
	<g id="_845791728">
		<path class="st0" d="M686.1,136.6v68.2l-14.2-8.5v-26.4h-32.6v26.4l-14.2,8.5v-34.9l-9.2-11.5h9.2v-21.8l14.2,8.5v13.3h32.6v-13.3
			L686.1,136.6L686.1,136.6z M765.4,141.2v41.6c0,5.7-1.7,10.2-5,13.3c-3.3,3-7.8,4.5-13.6,4.5h-42.1V159c0-5.7,1.7-10.2,5.1-13.3
			c3.3-3,7.8-4.5,13.6-4.5H765.4z M751.2,181v-28.3h-23.9c-5.7,0-8.5,2.7-8.5,8V189h23.9C748.4,189,751.2,186.3,751.2,181z
			 M843.7,136.6v46.1c0,5.7-1.7,10.2-5,13.3c-3.3,3-7.8,4.5-13.6,4.5h-41v-64l14.2,8.5V189H821c5.7,0,8.5-2.5,8.5-7.4v-36.5
			L843.7,136.6L843.7,136.6z M924.8,158.8v23.9c0,5.7-1.7,10.2-5,13.3c-3.3,3-7.8,4.5-13.6,4.5h-43.8l7.9-11.5h31.9
			c5.7,0,8.5-2.7,8.5-8v-11h-45.9v-13c0-4.5,1.6-8.1,4.7-11c3.5-3.2,8.1-4.8,14-4.8h41.3l-8.8,11.5h-30.5c-1.8,0-3.3,0.4-4.5,1.2
			c-1.4,0.9-2.1,2.3-2.1,4v0.9L924.8,158.8L924.8,158.8z M995.8,189l8.8,11.5h-59.5v-30.6l-9.2-11.1h9.2v-1.9c0-5,1.9-8.9,5.7-11.8
			c3.5-2.6,7.8-3.9,13-3.9h40.9l-8.8,11.5h-29.9c-1.8,0-3.3,0.4-4.5,1.2c-1.4,0.9-2.1,2.2-2.1,4v0.9h29.9l-8.4,11.1l-21.6,0V189
			L995.8,189L995.8,189z"/>
        <path class="st0" d="M50.7,189l8.8,11.5H0V159c0-5.7,1.7-10.2,5-13.3c3.3-3,7.8-4.5,13.6-4.5h40.9l-8.8,11.5h-28
			c-5.7,0-8.5,2.7-8.5,8V189H50.7z M127.4,141.2h14.9l-19.1,31.1l8.1,10.6h-14.9L106,200.5H91l11.6-17.6h-8.3L68,141.2h16.4
			l18.2,30.2h7.1L127.4,141.2L127.4,141.2z M236,137v63.5h-80.1V137l14.3,8.5V189h18.7v-52l14.3,8.5V189h18.7v-43.5L236,137L236,137
			z M313.8,137v67.6l-14.2-8.5v-38.5l-30.7,15.9v22.6l-14.2,8.4V137l14.2,8.5v14.8L313.8,137L313.8,137z"/>
        <g>
			<path class="st1" d="M382.1,261.8v6.8l-24.9,0l0-6.7l-17.4,0l0.1-18.6l17.4,0V99.4l-44.7,13.2c-0.6,0.2-1.1,0.3-1.4,0.4
				c-0.6,0.2-0.3,0.1-1.1,0.4l-31.5-30.2c56.8-3.8,107.5-13.2,156.2-38c0.4-0.2,1.1-0.5,1.2-0.5l3.8-2.1c0.9-0.5,1.4-0.8,2.5-1.4
				c4.3-2.3,8.8-4.6,12.9-7.1l4.9-2.9c0.8-0.6,1.5-0.9,2.1-1.2c-0.4-1.3-3.9-3-5.1-3.8l-7.3-5.1c0,0-0.4-0.2-0.4-0.2l-3.3-2.3
				c-0.1-0.1-0.3-0.2-0.3-0.3l-3.5-2.7c0.7-0.8,0.5-0.3,1-0.9c0.3-0.3,0.1-0.3,0.6-0.9L457.2,0c1.1,0.5,2.1,1.3,3.3,2
				c4.8,2.9,9.2,6.1,13.8,9l8.1,4.9l8.3-4.9c4.6-3,9-6.1,13.8-9c1.3-0.8,2.2-1.6,3.3-2l13.4,13.8c0.6,0.7,0.4,0.6,0.6,0.9
				c0.5,0.6,0.3,0.1,1,0.9l-3.5,2.7c-0.1,0.1-0.3,0.2-0.3,0.3l-3.3,2.3c0,0-0.4,0.2-0.4,0.2c-1.6,1.1-12.1,7.9-12.4,8.9
				c0.6,0.3,1.3,0.6,2.1,1.2l4.9,2.9c4.1,2.5,8.6,4.8,12.9,7.1c1.1,0.6,1.6,0.9,2.5,1.4l3.8,2.1c0.1,0,0.9,0.3,1.2,0.5
				c48.7,24.8,99,34.4,155.7,38.2l-31.5,30.2c-0.8-0.3-0.5-0.2-1.1-0.4c-0.4-0.1-0.9-0.3-1.4-0.4c-14.4-4.6-28.9-8.6-43.4-12.8
				c-0.6-0.2-0.6-0.1-1.3-0.4c-0.7,14.2,0,27.2-0.1,41.5l-26.2,0c0.1-5.9,0.3-48.1-0.1-48.8c-23.3-5.4-64.2-30.3-85.5-41.7
				c-2.3-1.3-5.3-2.7-7.4-4.1c-1.5-0.9-4-2.5-5.5-3c-4.1,2.5-8.7,4.8-13,7.2c-24.1,12.8-74.4,38.7-87,42.2l0,150l198.5-0.5l0.3-34
				l26,0l0,35.2l17.4,0l0.1,18.6l-17.5,0.1l0,6.7l-25-0.1c0.2-2.2,0-4.5,0-6.8L382.1,261.8L382.1,261.8z"/>
            <path class="st0" d="M553.8,108.7v120.1l-27.9-16.7v-41.1H443v41.1l-27.9,16.7c0-64.5,0-71.2,0-120.1l27.9,16.7v22.9h82.9v-22.9
				L553.8,108.7L553.8,108.7z"/>
		</g>
	</g>
</g>
</svg>
