<svg width="464" height="307" viewBox="0 0 464 307" fill="none" xmlns="http://www.w3.org/2000/svg">
<rect width="463.7" height="307" rx="40" fill="white"/>
<g clip-path="url(#clip0_7_25)">
<path d="M121.1 255.5L120.3 256.2C120.4 256.4 120.7 256.7 121 257.1L118.5 258.7H118.2C118 258.7 117.7 258.6 117.3 258.5L116.5 259.2L115.4 259.1L114.2 260.1L113.1 259.4L111.7 259.8L110.4 260.6C110.3 260.6 110.2 260.5 110.1 260.5C109.7 260.5 109.6 260.6 109.5 260.8L109 263C109.2 263.3 109.3 263.6 109.3 263.8C109.3 264.1 109.2 264.4 109.1 264.8L108.9 265.3L109.2 265.4C109.2 266.1 109 266.8 108.7 267.4C109 268 109.1 268.5 109.2 268.8L108.6 269.3L108.7 271.7L108.1 275.1L108 275.8C108.1 276.3 108.1 276.7 108.1 276.8V277.1L108.4 277.8L108.5 279C108.5 279.2 108.3 279.5 108.2 280C108.2 281.5 107.1 282.3 105 282.4L104.9 281L104.4 280.1L104 278.9V276.6L103.5 275.2L103.7 275.1L103.5 274.1V272.5L103.7 269.9L103.6 267.6L104 266.3V264.8C104 264.5 104.1 264.1 104.2 263.6C104.3 263.1 104.4 262.7 104.4 262.4C104.4 262 104.3 261.5 104 261.2L103.9 261L103.7 261.1L102.8 260.8C102 261 101.3 261.1 100.6 261.1C100.1 261.1 99.8 261.1 99.6 261L96.8 261.9L93.8 261.6C93 261.5 92.5 261.5 92.2 261.5C91.6 261.5 90.8 261.7 89.8 262H89.5L88 262.7L87 262L85.4 262.3L85.2 262.2L84.9 262.3L83.6 262.2L83.5 262.7L81.7 262C81 262.1 80.4 262.2 80.1 262.2V265.2L79.9 266.7L80.2 267.9L79.7 268.9L80.2 269.8L79.7 272.6L80 273.5L79.9 275.1L80.5 276.4L80.2 277L80.3 277.8C80.3 278.8 79.7 279.2 78.7 279.2C76.9 279.2 76 277.6 76 274.3L74.7 273L74.4 272.2C74.4 271.6 74.5 271.2 74.8 270.8L74.9 269.7L74.7 269L74.4 263.9V262.5L74.3 262.3L73 261.6L72.8 258.4L74.6 257.4C74.8 256.7 74.9 255.8 74.9 254.8C74.9 253.8 74.8 252.9 74.6 252.2L75 252.4L74.9 251.5L75.3 250.1L74.9 247.8V246.3L75.4 244L78 242.6L79.2 243.5L80.6 244L80.8 245.4L81.4 246.3C81.2 246.9 81 247.5 80.8 248.2C80.9 248.9 81 249.6 81 250.4C81 251.6 80.8 252.8 80.5 254L81.1 255.2L80.4 256.1V256.9L81 257.1L82.6 256.9L83.7 257L85.5 256.8L86 257C86.2 257 86.5 256.9 86.7 256.9C86.9 256.9 87.1 256.9 87.5 257L87.6 257.1H88.6C88.6 257.1 89 257.1 89.6 257C90.2 257 90.9 256.9 91.5 256.9L92.5 256.2L93.5 256.8L94.5 256.9L94.8 257C95.1 256.9 95.4 256.9 95.7 256.9H96L103 256.2L104 256.3L104.3 256.1L104 255L104.3 254L103.8 251.3L104.3 250.4L103.1 247.3L103 246.8L102.7 246.5C102.7 246.4 102.8 246.2 103 245.9C103.1 245.7 103.1 245.6 103.1 245.6V245.3C103.1 245 103.4 244.6 104.1 244.3L104.8 242.5L106.6 242.8L107.4 243.3L109.2 242.9V243.8L110 243.6V246.7L109.7 247.2L110.2 248.5V249.4L110.5 250.4L110 251.6L110.2 252.5L109.9 255.5V256L111.3 255.9L113.9 255.3L115.1 255.4L115.9 255.3H117.3C117.6 255.1 118 255 118.4 255C118.7 255 119 255.1 119.4 255.3L121.1 255.5ZM163.1 260.9L162.4 262.3L162.1 264.5L161.4 265.1C161.1 266.8 160.5 268 159.4 268.4L158.9 268.6L155 271.4L154 272L152.1 274.1L150.9 273.9L150.2 274.4L148.9 274.9L145.6 276.6C145.3 276.5 145 276.3 144.6 276C144.3 276.4 143.8 276.7 143.2 276.9H142.9L141.6 277.9L141.3 277.8H140L139.4 278.3L136.9 278.2L133.6 278.7H133.2C132.9 278.7 132.5 278.7 132.1 278.8L130.3 278.5L130 278.2L127.4 277.8L126.3 277.3H124.7V276.6L123.5 275.3L121.9 274.6L121.2 272.6L121 271L120.6 270.5L120.5 267.5L121.4 264.9L121.3 263.3L121.6 263V261.8L122.5 260.9V260.2L122.9 259.5V258.8L123.2 258.5L122.9 257.8L123.9 257.1L125.1 254.5L127.8 250.6L128.5 250.3C128.6 250.1 128.8 249.8 129.1 249.4L129.8 248.9V247.9L130.8 247.7C131.5 247.2 132.2 246.8 133 246.5L133.3 246.1C133.7 245.9 134.8 245.7 136.7 245.4L138.5 245.1L140.6 245.4L141.8 245.3H143.6L144 245.4L144.2 245.5H144.5L144.9 245.4L147 245.5L146.9 245.9L147.9 246.2C148.2 246.1 148.3 245.9 148.3 245.7C148.5 246.1 149 246.3 149.7 246.3L150.2 246.8H152.2L156.6 248.7L157 250L157.4 250.6L158.6 251.1L160.4 254L161.4 255.3C162.6 258.1 163.2 259.7 163.2 260.2L163.1 260.9ZM158.2 261.3L157.9 259.5L158.2 259L157.7 257.9C157.7 257.8 157.8 257.7 157.8 257.5C157.8 257.4 157.8 257.3 157.7 257.2L156.5 256.4L156.1 255.4L155.6 255.2L155.4 254.3L153.8 252.8L152.8 252L152.4 252.2C151.4 251.3 149.5 250.5 146.8 249.9C146.5 249.9 146.2 249.9 146.1 249.8L145.8 250L144.6 249.7L143.9 250C143.2 249.8 142.9 249.7 142.7 249.7C142.7 249.7 142.5 249.7 142.2 249.8C141.9 249.9 141.7 249.9 141.4 249.9C141.2 249.9 141 249.9 140.9 249.8C140.6 250.4 139.9 250.9 138.7 251.3L137.8 251.2L136.9 251.7L135.7 251.6C134.9 252.2 134 252.8 132.9 253.5L132.6 254L132.3 255.4L130.8 256.1L130.5 256.4C130.2 256.9 129.9 257.4 129.5 257.8V258.9L128.6 259.3L128.4 259.4L127.8 261.4L126.9 261.9C126.8 264.1 126.4 265.7 125.8 266.6C125.5 267.1 125.3 267.7 125.2 268.6L124.9 269.3L125.1 269.8L125.3 270.8L126.1 271.7L126.2 272.6L126.9 273.3C128.1 274 129.2 274.4 130.2 274.4L133 273.7L133.6 274.3H134.4L134.5 274.2L136.5 273.9L138.6 274.2C139 273.9 139.4 273.7 139.8 273.7C140.8 273.1 141.7 272.8 142.4 272.8L143.8 272L144.8 271.9L145.7 271.2L147.7 271.1C147.9 271.1 148.1 271 148.3 271L148.4 270.8C148.7 270.4 149.2 270.1 149.8 269.9L150.6 268.1L151.1 268.4L151.6 268.1L152.5 267.2L152.8 267.3L153.9 266.5L155.9 264.5L156.8 264.2L157.2 263.2L157.7 262.9L157.6 262.3L158.2 261.3ZM202.7 255.3L202 257.3L200.8 258.3V259.2C200.4 259.3 200 259.4 199.5 259.7L199.3 259.8C199.1 260.4 198.7 260.7 198.3 260.7C197.8 261.3 196.8 261.7 195.5 262C194.8 262.7 194.1 263.1 193.4 263.2L192.5 263.7H191.2L190.5 264.2L190.2 264.3C190 264.5 189.8 264.6 189.4 264.8L188.7 265.3H187.2L186.4 266L183.6 266.6C183.3 266.6 182.8 266.6 182 266.7L180.6 267.7C180.2 267.5 179.8 267.4 179.4 267.4H179L178.5 267.7L177.6 267.9L177 268.3L176.5 268.4L177.2 269.5L176.8 271.1L177.4 273.3L177.3 274.8L177.6 275.4C178.5 275.5 179 276.1 179 277.2C179 278.2 178.2 279 176.6 279.5L174.8 280.1L172.8 277.7L171.9 275V272.5L171 270.9L171.7 270.2L171.5 269.4L171.6 268.9C170.4 268.8 169.5 268.7 169 268.6L166.8 265.5L171.7 265.2V264.5L172 263.7L172.3 260.9L172.6 260.5L172.5 258L172.7 257L172.8 253.5L173.5 252L173.6 251.9L173.5 251.7C173.7 251.1 174 250.7 174.5 250.4L175.9 250.3H176.4C178.3 250.3 179.2 251 179.2 252.4C179.2 253 178.9 253.8 178.3 254.8V255.1C178.3 255.8 178.6 256.4 179.2 257.1L178.2 257.4L178.1 259L177.3 259.7L177.6 260.6L177.1 261.6L177.4 262.8L177.1 263.4L177.2 264L177.7 263.7H179C179.6 263.2 180.3 263 181.2 262.9L182.1 262.1C182.4 262.4 182.7 262.6 183 262.7C183.5 262.5 184.3 262.1 185.5 261.7L186.4 261.6L187.4 260.9H187.9L188 260.8H188.5C189.4 260.8 190.2 260.5 190.9 259.9L192.3 260L192.4 259.7L193.3 259.3L193.8 258.7C194 258.7 194.2 258.8 194.5 258.8L195.1 257.7C195.3 257.5 195.5 257.4 195.6 257.4C195.7 257.4 195.8 257.5 195.9 257.7C196 257.5 196.3 257.3 196.8 257.1L196.9 256.8L197.4 256.5L197.5 256L197.2 255.1L196.7 254.5L196.2 254.4L195 253.4L192.6 252.5C191.5 251.8 190.5 251.3 189.6 251L188.6 251.6L186.8 250.5L185.3 250.6L184.3 250H183.3L182.4 249.5C182.4 249.5 182.3 249.5 182.1 249.5C182 249.5 181.9 249.6 181.8 249.6C181.3 249.6 180.7 249.4 180.2 249.1L178.6 248.9L177.4 249L176.2 248.6L174.8 248.9L174.6 248.8L173.6 249.3L172.8 248.8V249.1H171.2L170 249.8L168.6 250L166.8 250.9L165.6 249.3C165.1 248.6 164.8 247.7 164.8 246.7L165.5 245.9C165.7 245.2 166.2 244.7 166.9 244.5C167.7 244.3 168.5 244.1 169.3 243.9C169.5 243.9 169.7 243.9 169.8 243.9C170 243.9 170.1 244 170.1 244L170.6 244.1L170.4 244.3L171.8 243.9L172 244C172.1 244 172.3 243.9 172.6 243.9C173 243.9 173.4 244 173.8 244.2H176.4L178.4 244.3L182 244.8L183 245.5L183.9 245.2L185.6 245.7L187.6 245.8L187.9 246.1H189.3L190.8 247L192.2 247.1L192.5 247.6C193.3 247.6 194.1 247.9 194.9 248.5L196.2 248.2L196.7 249.5L197.4 250H198.5L199.4 251.2L201.9 252.6V253.6L202.7 255.3ZM217.8 271L219 270.5L220.6 268.6L222.8 267.4C223 266.9 223.4 266.4 223.9 266.1C224.4 265.8 225 265.4 225.5 265.2L229.6 261.4L231.4 259.2L233 257.8L233.1 257.5C233.1 257.2 233.4 257 233.8 256.9C234.2 256.8 234.5 256.7 234.8 256.6L236 254.5L236.2 254.1L238.9 252.4L241.5 248.7L242.5 248L242.8 247.1L243.8 246.6C244 246.1 244.3 245.7 244.8 245.3C245.2 244.9 245.7 244.6 246.1 244.3L246.6 245L247.2 244.9C248.2 245 248.6 245.4 248.6 246C248.7 246.3 248.8 246.5 248.8 246.9C248.8 247.1 248.7 247.4 248.5 247.8L248.2 251.6L247.9 252.2L248 254.1L247.7 256.3L247.8 259.4L247.2 260.6L248.1 262.5L247.6 264.3L247.9 265.4L248.2 266.2L248 268.2V268.9C248 269.1 248.1 269.4 248.1 269.7L247.9 270.2L247.4 270.8C247.4 270.9 247.5 271.1 247.5 271.5C247.5 271.7 247.5 271.9 247.4 272.1C247.3 272.3 247.3 272.4 247.2 272.5L247.6 273.5L247.1 274.5L247.6 276.7C247.5 277.7 247.1 278.4 246.5 278.8C245.9 279.3 245.3 279.5 244.6 279.5H243.4C243.2 279.1 243 278.6 242.8 278.2C242.6 277.8 242.5 277.3 242.4 276.8C242.4 276.5 242.5 276.3 242.6 276.1L241.9 275L242.4 274.1L242.3 272.7L242.5 271.3L241.9 269L242.5 268.9C242.4 268.7 242.4 268.5 242.4 268.2C242.4 268 242.4 267.7 242.4 267.4C242.4 266.9 242.6 266.5 242.9 266.2L243.1 265.2L242.5 262L242.7 260.1L242.4 257.3L242.9 256.6L242.5 256L242.8 254.9L242.4 254.8L241 255.8L240.3 256.8C239.9 257.3 239.5 257.8 239.1 258.2C238.6 258.7 238.1 259.1 237.6 259.5L236.9 260.7L235.7 261L233.9 263.8L231.2 266L230.1 267.2L229.2 267.7L228.2 268.7L226.4 269.7L226.1 270.2L221 274.1L220.7 274.2L220.2 275.1C220 275.2 219.6 275.3 219.2 275.5C218.8 275.7 218.2 275.8 217.6 275.9L216 277.3L215.3 278.5L213.8 278.6L213.5 278.9H213.4V279.5L209.7 280.5L209 279.5L208 278.6L209.1 277.2L208.4 274.3L208.6 274.1L208.3 273.2L209.6 272.4L208.6 271L209.5 269.4L209.2 268L209.3 267L209 264.8L209.5 264.1L209 261.6L209.5 260.9L208.8 259.7L209.2 256.7L209.1 256.4C208.8 256 208.6 254.8 208.5 252.7L208.4 252.4L208.6 251L208.4 250C208.5 249.6 208.7 249.1 209 248.8C209.2 248.7 209.3 248.5 209.3 248.3C209.3 248.1 209.4 247.8 209.5 247.5C209.6 247.2 209.7 246.9 209.6 246.4L211.7 246.1L212 245.4L215.3 246.8L214.9 247.5L215.6 248.3L214.8 248.8L215.5 251.3L214.6 252.1V255.8L214.1 257.9L214.7 260.5L213.7 261.5V261.7L214.3 262.7L214.2 266.2L213.9 266.4L214.4 267.6L213.4 270.3L213.9 272.7L217.8 271ZM341.8 278.1C341.5 278.8 340.7 279.4 339.3 279.9L337.2 278.6L335.2 276.3L334.5 274.8L334.3 273.6L334 272.9C333.4 271.5 333.1 270.2 333.1 269.1C333.1 268.8 333.2 268.5 333.3 268.1L333.4 268L333.5 266.8L332.7 265.4L333 264.6L332.9 263.6L333 262.7C332.9 262.2 332.8 261.7 332.8 261.3V261C332.8 260.2 332.7 259.4 332.5 258.6V256.8L332 255.6L331.9 254.7L331.2 255L329.1 257.6L327.3 259.6L326.6 260.9L324.6 263.1L322.4 264.6L322.1 265.8L320.8 266.3L320.5 267L318.9 267.7L318.4 268.9L317.2 269.3L315.9 271.4L315.1 271.9C315.1 272.1 315 272.5 314.8 273.1C314.1 273.5 313.4 273.6 312.7 273.6H312.3L311.6 272.4L310.6 271.1L310.7 270.4L310 269.5L310.3 269L310.2 268.9L309.9 267.9L309.4 267.5C308.6 266.7 307.9 265.9 307.4 265.2L307 264L306.3 263.3L305.1 261L303.8 259.6L303.3 258.8L302.1 257.5L300.7 255.6C300.6 255.3 300.4 254.9 300 254.6C299.9 256.2 299.6 257.3 299.1 258.1L297.9 260.1L298.2 261.5L297.6 262.9L296.3 267L295.8 268.3L296 269L295 271.2L294.1 272.6L294.2 273.9C293.9 274.6 293.6 275.4 293.1 276.2L293.5 277.8C292.2 279.1 291.3 279.7 290.6 279.7C289.9 279.7 289.4 279.4 289 278.7C288.7 278.4 288.5 278 288.4 277.5V277.2C289.2 274 289.7 272.3 290 272.3C290 272.3 290.1 272.3 290.1 272.4V271.3C290.1 270.2 290.5 269.3 291.4 268.7V268.3L291.8 267L291.7 266.5C291.7 266.3 291.9 265.7 292.3 264.7L292.6 264.4L292.7 262.6L293.4 261.5L294.4 258.2L294.1 256.2L295 255.5V255.3L295.1 252.7L295.3 251.6C295.4 251.3 295.5 250.9 295.5 250.7V250.4L294.4 248.3L294.7 247.1L295.2 247L295.7 246.3L295.6 245.8L296.5 245L297.1 245.3L297.9 244.6L298.8 244.7L300.4 245.8V246.3L301 246.7L301.3 248.2L301.8 248.6L302.2 249.8L302.1 250.1L302.7 250.6C303 250.5 303.2 250.4 303.4 250.4C303.7 250.5 304 250.8 304.4 251.3L304.5 252.2L305.1 252.9L305.6 254.3L308.6 257.2L309.1 258.8L310.1 259.5L311.1 262.1L313.1 265.6C313.1 265.6 313.3 265.8 313.5 266.1L313.6 266.3H314.3L314.8 265.2L316.4 264.2C317.4 263.1 317.9 262.5 317.9 262.4C317.9 262.4 317.9 262.3 317.8 262.3H317.7C317.9 262.1 318.2 262 318.6 261.8C318.7 261.7 319 261.5 319.5 261.2C319.8 260.5 320.3 260 321.1 259.7L321.4 259.3V258.7C322.4 257.4 323.3 256.6 324 256.4C324 255.7 324.7 255.1 326 254.5L327.2 252.9L327.6 251.8H328.3C328.8 250.9 329.2 250.3 329.4 249.8L330.3 249.4L330.8 249.5L330.7 248.2L330.1 246.9L331 245.5L331.5 243.9C331.9 243.9 332.3 243.9 332.6 243.8C332.9 243.8 333.1 243.7 333.1 243.7C333.4 243.7 334 243.9 334.9 244.4L335 244.9L335.7 245.5L335.8 246L336.5 246.5L336.2 246.8C336.9 247.1 337.2 247.4 337.2 247.9C337.2 248.1 337.2 248.3 337.1 248.6V249.6C337.2 249.7 337.4 250.1 337.9 250.8L337.5 251.1L337.4 251.4L337.5 251.5L337.7 252.5L338.6 253.2L337.9 254.1L337.6 255.5L338.1 256.5L338 258L338.6 260C338.9 260.9 339 261.6 339 262.1C339 262.4 338.8 262.8 338.4 263.3C338.7 263.5 338.9 263.7 338.9 264.1C338.9 264.4 338.8 264.8 338.5 265.3L338.8 265.6L338.6 269.3L339.3 271.3V273.5C339.6 273.9 339.8 274.3 340 274.8C340.1 274.9 340.6 275.5 341.4 276.4C341.5 277.2 341.7 277.7 341.8 278.1ZM359.9 271L361.1 270.5L362.7 268.6L364.9 267.4C365.1 266.9 365.5 266.4 366 266.1C366.5 265.8 367.1 265.4 367.6 265.2L371.7 261.4L373.5 259.2L375.1 257.8L375.2 257.5C375.2 257.2 375.5 257 375.9 256.9C376.3 256.8 376.6 256.7 376.9 256.6L378.1 254.5L378.3 254.1L381 252.4L383.6 248.7L384.6 248L384.9 247.1L385.9 246.6C386.1 246.1 386.4 245.7 386.9 245.3C387.3 244.9 387.8 244.6 388.2 244.3L388.7 245L389.3 244.9C390.3 245 390.7 245.4 390.7 246C390.8 246.3 390.9 246.5 390.9 246.9C390.9 247.1 390.8 247.4 390.6 247.8L390.3 251.6L390 252.2L390.1 254.1L389.8 256.3L389.9 259.4L389.3 260.6L390.2 262.5L389.7 264.3L390 265.4L390.3 266.2L390.1 268.2V268.9C390.1 269.1 390.2 269.4 390.2 269.7L390 270.2L389.5 270.8C389.5 270.9 389.6 271.1 389.6 271.5C389.6 271.7 389.6 271.9 389.5 272.1C389.4 272.3 389.4 272.4 389.3 272.5L389.7 273.5L389.2 274.5L389.7 276.7C389.6 277.7 389.2 278.4 388.6 278.8C388 279.2 387.4 279.5 386.7 279.5H385.5C385.3 279.1 385.1 278.6 384.9 278.2C384.7 277.8 384.6 277.3 384.5 276.8C384.5 276.5 384.6 276.3 384.7 276.1L384 275L384.5 274.1L384.4 272.7L384.6 271.3L384 269L384.6 268.9C384.5 268.7 384.5 268.5 384.5 268.2C384.5 268 384.5 267.7 384.5 267.4C384.5 266.9 384.7 266.5 385 266.2L385.2 265.2L384.6 262L384.8 260.1L384.5 257.3L385 256.6L384.6 256L384.9 254.9L384.5 254.8L383.1 255.8L382.4 256.8C382 257.3 381.6 257.8 381.2 258.2C380.7 258.7 380.2 259.1 379.7 259.5L379 260.7L377.8 261L376 263.8L373.3 266L372.2 267.2L371.3 267.7L370.3 268.7L368.5 269.7L368.2 270.2L363.1 274.1L362.8 274.2L362.3 275.1C362.1 275.2 361.7 275.3 361.3 275.5C360.9 275.7 360.3 275.8 359.7 275.9L358.1 277.3L357.4 278.5L355.9 278.6L355.6 278.9H355.5V279.5L351.8 280.5L351.1 279.5L350.1 278.6L351.2 277.2L350.5 274.3L350.7 274.1L350.4 273.2L351.7 272.4L350.7 271L351.6 269.4L351.3 268L351.4 267L351.1 264.8L351.6 264.1L351.1 261.6L351.6 260.9L350.9 259.7L351.3 256.7L351.2 256.4C350.9 256 350.7 254.8 350.6 252.7L350.5 252.4L350.7 251L350.5 250C350.6 249.6 350.8 249.1 351.1 248.8C351.3 248.7 351.4 248.5 351.4 248.3C351.4 248.1 351.5 247.8 351.6 247.5C351.7 247.2 351.8 246.9 351.7 246.4L353.8 246.1L354.1 245.4L357.4 246.8L357 247.5L357.7 248.3L356.9 248.8L357.6 251.3L356.7 252.1V255.8L356.2 257.9L356.8 260.5L355.8 261.5V261.7L356.4 262.7L356.3 266.2L356 266.4L356.5 267.6L355.5 270.3L356 272.7L359.9 271Z" fill="black" stroke="black" stroke-width="1.4173" stroke-miterlimit="10"/>
<path fill-rule="evenodd" clip-rule="evenodd" d="M306.5 220C330.2 199.6 345.3 169.3 345.3 135.5C345.3 73.9 295.4 24 233.8 24C172.2 24 122.3 73.9 122.3 135.5C122.3 169.3 137.3 199.6 161.1 220H306.5Z" fill="#E0A2AD"/>
<path fill-rule="evenodd" clip-rule="evenodd" d="M162.1 220C161.4 220 162.5 218.6 162.8 218C164 215.5 166.1 213.3 168.5 211C171 208.7 173.9 206.4 178.4 204.7C182.9 203 189 202 194.3 200.4C199.6 198.9 204.2 196.9 206.7 195.9C209.2 194.9 209.8 194.8 210.6 193.2C211.4 191.7 212.4 188.7 213.1 186.7C213.8 184.7 214.3 183.6 214.7 181.6C215.1 179.5 215.3 176.4 215.1 174.3C214.9 172.1 214.3 170.9 212.8 168.7C211.3 166.5 208.9 163.3 205.6 160.5C202.3 157.7 198 155.4 192.1 153.3C186.2 151.2 178.8 149.2 172 147.4C165.2 145.6 159 143.9 156.8 141.7C154.5 139.4 156.2 136.6 161.1 132.1C166 127.6 174.2 121.4 184.2 113.7C194.2 106 206.2 97 214.4 92.8C222.6 88.7 227.1 89.5 233.6 92C240.1 94.6 248.6 98.9 258.2 103C267.8 107.1 278.5 111 285.9 115.2C293.3 119.3 297.4 123.7 301.7 127.8C306 131.9 310.4 135.8 311 139.1C311.6 142.4 308.2 145.3 303 147.7C297.8 150.2 290.6 152.3 284.6 153.9C278.5 155.5 273.5 156.6 269.3 158.1C265.1 159.6 261.6 161.6 259.3 163.2C257 164.9 255.7 166.4 254.6 167.7C253.5 169 252.6 170.2 252.2 171.5C251.8 172.8 251.9 174.2 251.9 176.1C251.9 178 251.8 180.3 251.8 181.7C251.8 183.1 251.9 183.4 252.4 183.6C252.8 183.8 253.6 183.8 254.4 185.5C255.3 187.2 256.2 190.6 257.2 192.8C258.2 194.9 259.2 195.7 264.6 197.6C270 199.5 279.8 202.4 286 204.6C292.2 206.8 294.8 208.3 297.3 210.3C299.8 212.3 302.3 214.9 303.6 217.1C304.3 218.2 305.9 220.1 305 220.1L162.1 220Z" fill="white" stroke="white" stroke-width="0.567" stroke-miterlimit="10"/>
<path fill-rule="evenodd" clip-rule="evenodd" d="M219.8 176.8C224.1 179.4 229.4 184.5 236.8 182.6C243.5 180.9 246.9 176.3 251.1 173.4L250.9 182.4C245.3 183.7 242.5 184.9 239.3 188.1C234.9 192.5 234.9 198.7 234 200C232.9 197.7 232.7 193.7 229.6 189.4C226.6 185.1 221.2 183.6 216.3 182.7V173.7C217.6 174.5 218.6 175.8 219.8 176.8ZM274.5 134.9C273.1 141.6 265.9 162.8 259.7 163.2C257.9 166.7 255.6 169.1 252.9 171.9L252.8 181.7L254.6 181.3L258.4 193.9L267.4 196.6C272.3 198.1 276.8 199.5 281.7 201C293.5 204.5 301.7 207.9 306.6 220H303.8C302.2 215.8 297.2 210.8 294 208.8C289.5 206 283.9 204.6 278.2 202.9C272.6 201.2 267.3 199.2 261.8 197.7C257.4 196.5 256.5 197.4 255.4 193.2C254.7 190.7 253.3 187.3 253 184.8C242.5 186.2 237.3 191.8 236.6 202.7L252.3 199.6L246.2 202C235.3 204.8 218.7 210.7 212 220.1H208.6C214.2 212.4 221 209.3 229 204.6C226.9 204 224.9 203.2 222.9 202.5L218.1 200.1L220.1 200.6L231.5 203.1C231.5 192.9 226.1 186.9 217.1 185.4L214.5 184.8L211.9 194.1L211.5 195.5C211.3 195.8 211.1 196 210.8 196.2C209.8 196.9 208.3 197.2 207.3 197.4C202.2 198.5 186 204 182.3 205.2C177.8 206.6 174.1 208.4 170.9 210.7C168.4 212.6 164.9 216.9 163.8 220.1H161.3C161.5 217.8 163.2 215.2 164.6 213.4C173 203.2 181 203 196.3 198C200.1 196.8 205.7 195.4 209.2 193.9C210 189.9 211.9 186.1 212.7 182.2C213.2 182.2 213.8 182.3 214.4 182.5L214.7 172.6C212.2 170 209.2 166.9 207.2 162.8C206 160.1 201.8 165.8 201.5 158.4L196.5 148.3C196.5 146.8 193.6 141.8 192.6 134.8L274.5 134.9ZM219.8 173.9C216.6 171.6 214.4 169.9 211.9 166.6C204.3 156.6 203.2 144.3 203 141.5C226.3 146.9 240.7 147.6 264 141.4C261.8 153 261 157.8 253.1 167.7C238.2 183.3 232.1 182.8 219.8 173.9ZM264.3 153C264.9 150.3 266.1 147.3 266.8 144.4C267.9 139.7 267.1 140.2 271.5 138.2C271.4 144.1 268.7 149.7 264.3 153ZM200.7 144.5C201.2 147.3 202.4 150.2 202.8 153.1C201.1 152.1 199 149.3 197.9 146.9C196.4 143.7 196 142 195.5 138.3C200.9 140.8 200 141 200.7 144.5Z" fill="black"/>
<path fill-rule="evenodd" clip-rule="evenodd" d="M202 168.7L198.8 167.4C197.2 172 199.2 172.6 202.7 174.7L199 173.2C197.3 176.8 199 178.8 201.1 180.2L199.6 179.7C198.9 180.3 198.2 181.9 198.7 183.2C199.1 184.4 200.5 185.4 202.9 186.2L199.4 185.2C197.4 187.8 199.8 190.1 202.3 191.1L199.4 190.5C197.7 193.5 201.9 197.9 202 198.3C203.2 197.8 207 197 205.6 196.5C206.2 196 207.2 194.4 207.7 193.5C208.7 191.7 208.8 190.3 207.9 188.8L204.8 189.7C206.3 189.3 208.2 187.7 208.7 186.2C209.1 185 208.8 183 208.1 182.1L205.3 183.3C208.2 181.6 209.6 179.8 207.9 176.4L204.7 178C207.6 176.3 209.5 173.8 207.6 171.2C206.9 171.4 205.1 172.2 204.4 172.4C208 170.9 208.7 169.3 207.4 166L204.6 168C206.3 166.4 208.1 165.4 208.1 162H199.4C196.9 165.5 198.7 166.6 202 168.7Z" fill="#010101"/>
<path fill-rule="evenodd" clip-rule="evenodd" d="M264.6 168.7L267.6 167.4C269.8 172 267.8 172.6 264.7 174.7L268.2 173.2C270.4 176.8 269 178.8 267.1 180.2L268.6 179.7C269.4 180.3 270.3 181.9 269.9 183.2C269.6 184.4 268.3 185.4 266.1 186.2L269.5 185.2C271.8 187.8 269.8 190.1 267.4 191.1L270.2 190.5C272.3 193.5 268.7 197.9 268.6 198.3C267.4 197.8 263.4 197 264.8 196.5C264.1 196 262.9 194.4 262.3 193.5C261 191.7 260.8 190.3 261.5 188.8L264.7 189.7C263.1 189.3 261 187.7 260.3 186.2C259.7 185 259.8 183 260.3 182.1L263.3 183.3C260.2 181.6 258.6 179.8 259.8 176.4L263.2 178C260 176.3 257.8 173.8 259.4 171.2C260.1 171.4 262 172.2 262.7 172.4C258.9 170.9 257.9 169.3 258.9 166L262 168C260.1 166.4 258.1 165.4 257.7 162H266.4C269.3 165.5 267.7 166.6 264.6 168.7Z" fill="#010101"/>
<path fill-rule="evenodd" clip-rule="evenodd" d="M268.3 202.2L271.4 200.9C273.5 205.5 271.4 206.1 268.2 208.2L271.7 206.7C273.8 210.3 272.3 212.3 270.3 213.7L271.8 213.2C272.6 213.8 273.4 215.4 273 216.7C272.7 217.9 271.4 218.9 269.1 219.7L272.5 218.7C274.7 221.3 272.6 223.6 270.2 224.6L273 224C275 227 271.2 231.4 271.1 231.8C269.9 231.3 266 230.5 267.4 230C266.7 229.5 265.6 227.9 265 227C263.8 225.2 263.6 223.8 264.4 222.3L267.5 223.2C265.9 222.8 263.9 221.2 263.3 219.7C262.8 218.5 262.9 216.5 263.5 215.6L266.5 216.8C263.5 215.1 261.9 213.3 263.3 209.9L266.7 211.5C263.6 209.8 261.5 207.3 263.2 204.7C263.9 204.9 265.8 205.7 266.5 205.9C262.8 204.4 261.9 202.8 262.9 199.5L265.9 201.5C264 199.9 262.1 198.9 261.9 195.5H270.6C273.1 199.1 271.4 200.2 268.3 202.2Z" fill="#010101"/>
<path fill-rule="evenodd" clip-rule="evenodd" d="M269.7 234.3L272.8 233C274.6 237.6 272.6 238.2 269.3 240.3L272.9 238.8C274.8 242.4 273.2 244.4 271.2 245.8L272.7 245.3C273.4 245.9 274.2 247.5 273.7 248.8C273.3 250 272 251 269.7 251.8L273.2 250.8C273.2 263 261.9 251.2 264.4 247.6L267.3 248.8C264.4 247.1 262.9 245.3 264.4 241.9L267.7 243.5C264.7 241.8 262.7 239.3 264.5 236.7C265.2 236.9 267 237.7 267.7 237.9C264 236.4 263.2 234.8 264.4 231.5L267.3 233.5C265.5 231.9 263.7 230.9 263.6 227.5H272.3C274.6 231.2 272.9 232.3 269.7 234.3Z" fill="#010101"/>
<path fill-rule="evenodd" clip-rule="evenodd" d="M269.3 253C270.3 252.9 270.6 253.5 271.2 254.7C271.7 255.9 272.5 257.7 273 259.7C273.4 261.7 273.5 263.9 272.8 266.9C272.1 270 270.7 273.9 269.8 276.4C268.9 278.9 268.5 279.8 268.3 280.3C268.1 280.8 268.1 280.8 267.6 279.6C267.1 278.4 266 276 265 273C264.1 270 263.3 266.4 263.3 263.2C263.3 260.1 264 257.4 265.3 255.7C266.5 254 268.3 253.1 269.3 253Z" fill="black" stroke="black" stroke-width="0.567" stroke-miterlimit="10"/>
<path fill-rule="evenodd" clip-rule="evenodd" d="M193.7 135.7C207.3 136.7 257.1 135.3 272.7 137C271.8 142.6 267.9 154.1 260.1 161.3L264.3 163.2C281.2 160.7 297.4 160 311.9 153C320.6 148.8 323.7 143.5 315.8 136.8C308 130.5 239.4 73.5 234.6 73.8C229.5 74.1 167.9 124.9 153.5 137C136.9 150.2 181.6 160.4 191.9 161.7C195.3 162.1 201.6 163 205.1 162.2L204.6 159.5C197.9 149.3 192.9 138.8 193.7 135.7ZM158.5 139.2C160.1 137.4 163.4 135.2 165.6 133.5C181 120.5 197.2 107.6 212.9 95C206.5 102.4 181.9 125.4 179.3 131.5L189.7 129.4C192 128.9 211 101.2 219.5 96.4C216.5 101.7 198.7 126.3 197.7 128.8L207 127.7C211 119.5 219.4 104.9 225.4 98.6L213.4 127.4C245.5 126.7 283 126.4 310.9 139C307 138.7 299.1 136.4 294.3 135.5C263.5 129.8 225.2 129.4 193.9 132.8C177.9 134.6 173 136.3 158.5 139.2Z" fill="#020102"/>
<path fill-rule="evenodd" clip-rule="evenodd" d="M241.4 166.2C240.9 166 240.8 165.9 240.4 165.7C233.9 162.4 235.9 164.5 233.5 164.5C233.2 164.5 232.9 164.5 232.6 164.5C231 164.4 231.1 163 228.1 164.7L223.6 166.9C227.4 168.4 226.5 173.4 233.4 173.3C240.6 173.1 238.8 168.4 242.9 167L241.4 166.2Z" fill="#0F0F0F"/>
<path fill-rule="evenodd" clip-rule="evenodd" d="M227.2 158.5C229.7 158.3 226 157.2 232.3 158.6C232.1 158.3 231.7 157.6 230.6 157.3C229.7 157 228.9 157.1 228.1 157.2C227.7 157.3 227.7 157.3 227.6 156.9L227.1 155.1C226.4 156.7 226.3 156.8 226.8 158.1C226.9 158.5 226.8 158.5 227.2 158.5Z" fill="#0F0F0F"/>
<path fill-rule="evenodd" clip-rule="evenodd" d="M239.3 158.5C236.8 158.3 240.5 157.2 234.2 158.6C234.4 158.3 234.8 157.6 235.9 157.3C236.8 157 237.6 157.1 238.4 157.2C238.8 157.3 238.8 157.3 238.9 156.9L239.4 155.1C240.1 156.7 240.2 156.8 239.7 158.1C239.6 158.5 239.7 158.5 239.3 158.5Z" fill="#0F0F0F"/>
</g>
<defs>
<clipPath id="clip0_7_25">
<rect width="319.7" height="259" fill="white" transform="translate(72 24)"/>
</clipPath>
</defs>
</svg>